<mxfile host="app.diagrams.net" modified="2022-02-14T16:08:38.119Z" agent="5.0 (Windows NT 10.0; Win64; x64) AppleWebKit/537.36 (KHTML, like Gecko) Chrome/98.0.4758.80 Safari/537.36" etag="7qDHmj6JwhxVpwDta8ME" version="16.5.6" type="github">
  <diagram id="F4dxIzOf5Go_hWlhYlSE" name="Page-1">
    <mxGraphModel dx="6811" dy="4217" grid="1" gridSize="10" guides="1" tooltips="1" connect="1" arrows="1" fold="1" page="1" pageScale="1" pageWidth="827" pageHeight="1169" math="0" shadow="0">
      <root>
        <mxCell id="0" />
        <mxCell id="1" parent="0" />
        <mxCell id="lmHkhgjNpgNXsXYPBzXR-8" style="edgeStyle=orthogonalEdgeStyle;rounded=0;orthogonalLoop=1;jettySize=auto;html=1;" edge="1" parent="1" source="lmHkhgjNpgNXsXYPBzXR-1" target="lmHkhgjNpgNXsXYPBzXR-4">
          <mxGeometry relative="1" as="geometry">
            <Array as="points">
              <mxPoint x="500" y="350" />
              <mxPoint x="760" y="350" />
            </Array>
          </mxGeometry>
        </mxCell>
        <mxCell id="lmHkhgjNpgNXsXYPBzXR-9" style="edgeStyle=orthogonalEdgeStyle;rounded=0;orthogonalLoop=1;jettySize=auto;html=1;" edge="1" parent="1" source="lmHkhgjNpgNXsXYPBzXR-1" target="lmHkhgjNpgNXsXYPBzXR-3">
          <mxGeometry relative="1" as="geometry">
            <Array as="points">
              <mxPoint x="500" y="350" />
              <mxPoint x="320" y="350" />
            </Array>
          </mxGeometry>
        </mxCell>
        <mxCell id="lmHkhgjNpgNXsXYPBzXR-1" value="Директор ресторана" style="rounded=0;whiteSpace=wrap;html=1;" vertex="1" parent="1">
          <mxGeometry x="440" y="230" width="120" height="60" as="geometry" />
        </mxCell>
        <mxCell id="lmHkhgjNpgNXsXYPBzXR-20" style="edgeStyle=orthogonalEdgeStyle;rounded=0;orthogonalLoop=1;jettySize=auto;html=1;" edge="1" parent="1" source="lmHkhgjNpgNXsXYPBzXR-3" target="lmHkhgjNpgNXsXYPBzXR-12">
          <mxGeometry relative="1" as="geometry">
            <Array as="points">
              <mxPoint x="290" y="500" />
              <mxPoint x="210" y="500" />
            </Array>
          </mxGeometry>
        </mxCell>
        <mxCell id="lmHkhgjNpgNXsXYPBzXR-21" style="edgeStyle=orthogonalEdgeStyle;rounded=0;orthogonalLoop=1;jettySize=auto;html=1;" edge="1" parent="1" source="lmHkhgjNpgNXsXYPBzXR-3" target="lmHkhgjNpgNXsXYPBzXR-14">
          <mxGeometry relative="1" as="geometry" />
        </mxCell>
        <mxCell id="lmHkhgjNpgNXsXYPBzXR-3" value="Менеджер&amp;nbsp;" style="rounded=0;whiteSpace=wrap;html=1;" vertex="1" parent="1">
          <mxGeometry x="260" y="400" width="120" height="60" as="geometry" />
        </mxCell>
        <mxCell id="lmHkhgjNpgNXsXYPBzXR-22" style="edgeStyle=orthogonalEdgeStyle;rounded=0;orthogonalLoop=1;jettySize=auto;html=1;" edge="1" parent="1" source="lmHkhgjNpgNXsXYPBzXR-4">
          <mxGeometry relative="1" as="geometry">
            <mxPoint x="790" y="550" as="targetPoint" />
            <Array as="points">
              <mxPoint x="810" y="505" />
              <mxPoint x="790" y="505" />
            </Array>
          </mxGeometry>
        </mxCell>
        <mxCell id="lmHkhgjNpgNXsXYPBzXR-23" style="edgeStyle=orthogonalEdgeStyle;rounded=0;orthogonalLoop=1;jettySize=auto;html=1;" edge="1" parent="1" source="lmHkhgjNpgNXsXYPBzXR-4" target="lmHkhgjNpgNXsXYPBzXR-16">
          <mxGeometry relative="1" as="geometry">
            <Array as="points">
              <mxPoint x="830" y="430" />
              <mxPoint x="830" y="500" />
              <mxPoint x="930" y="500" />
            </Array>
          </mxGeometry>
        </mxCell>
        <mxCell id="lmHkhgjNpgNXsXYPBzXR-4" value="Менеджер" style="rounded=0;whiteSpace=wrap;html=1;" vertex="1" parent="1">
          <mxGeometry x="770" y="400" width="120" height="60" as="geometry" />
        </mxCell>
        <mxCell id="lmHkhgjNpgNXsXYPBzXR-24" style="edgeStyle=orthogonalEdgeStyle;rounded=0;orthogonalLoop=1;jettySize=auto;html=1;" edge="1" parent="1" target="lmHkhgjNpgNXsXYPBzXR-17">
          <mxGeometry relative="1" as="geometry">
            <mxPoint x="840.0666666666671" y="500" as="sourcePoint" />
          </mxGeometry>
        </mxCell>
        <mxCell id="lmHkhgjNpgNXsXYPBzXR-25" style="edgeStyle=orthogonalEdgeStyle;rounded=0;orthogonalLoop=1;jettySize=auto;html=1;exitX=1.008;exitY=0.883;exitDx=0;exitDy=0;exitPerimeter=0;" edge="1" parent="1" target="lmHkhgjNpgNXsXYPBzXR-18">
          <mxGeometry relative="1" as="geometry">
            <mxPoint x="900.9599999999996" y="492.9799999999998" as="sourcePoint" />
          </mxGeometry>
        </mxCell>
        <mxCell id="lmHkhgjNpgNXsXYPBzXR-66" style="edgeStyle=orthogonalEdgeStyle;rounded=0;orthogonalLoop=1;jettySize=auto;html=1;" edge="1" parent="1" source="lmHkhgjNpgNXsXYPBzXR-12" target="lmHkhgjNpgNXsXYPBzXR-65">
          <mxGeometry relative="1" as="geometry" />
        </mxCell>
        <mxCell id="lmHkhgjNpgNXsXYPBzXR-67" style="edgeStyle=orthogonalEdgeStyle;rounded=0;orthogonalLoop=1;jettySize=auto;html=1;entryX=0.75;entryY=0;entryDx=0;entryDy=0;" edge="1" parent="1" source="lmHkhgjNpgNXsXYPBzXR-12" target="lmHkhgjNpgNXsXYPBzXR-64">
          <mxGeometry relative="1" as="geometry" />
        </mxCell>
        <mxCell id="lmHkhgjNpgNXsXYPBzXR-12" value="Повар-наставник" style="rounded=0;whiteSpace=wrap;html=1;" vertex="1" parent="1">
          <mxGeometry x="120" y="550" width="120" height="60" as="geometry" />
        </mxCell>
        <mxCell id="lmHkhgjNpgNXsXYPBzXR-13" value="&lt;h1 style=&quot;font-size: 78px&quot;&gt;&lt;font style=&quot;font-size: 78px&quot;&gt;Ресторан бугер кинг&lt;/font&gt;&lt;/h1&gt;&lt;h1 style=&quot;font-size: 78px&quot;&gt;&lt;span style=&quot;font-weight: 400&quot;&gt;&lt;font style=&quot;font-size: 78px&quot;&gt;Диаграмма сети ресторанов быстрого питания &quot;Бургер кинг&quot;&lt;/font&gt;&lt;/span&gt;&lt;/h1&gt;" style="text;html=1;strokeColor=none;fillColor=none;spacing=5;spacingTop=-20;whiteSpace=wrap;overflow=hidden;rounded=0;" vertex="1" parent="1">
          <mxGeometry x="90" y="-820" width="1010" height="530" as="geometry" />
        </mxCell>
        <mxCell id="lmHkhgjNpgNXsXYPBzXR-69" style="edgeStyle=orthogonalEdgeStyle;rounded=0;orthogonalLoop=1;jettySize=auto;html=1;entryX=0.5;entryY=0;entryDx=0;entryDy=0;" edge="1" parent="1" source="lmHkhgjNpgNXsXYPBzXR-14" target="lmHkhgjNpgNXsXYPBzXR-68">
          <mxGeometry relative="1" as="geometry" />
        </mxCell>
        <mxCell id="lmHkhgjNpgNXsXYPBzXR-14" value="Универсал-наставник" style="rounded=0;whiteSpace=wrap;html=1;" vertex="1" parent="1">
          <mxGeometry x="310" y="550" width="120" height="60" as="geometry" />
        </mxCell>
        <mxCell id="lmHkhgjNpgNXsXYPBzXR-15" value="Повар" style="rounded=0;whiteSpace=wrap;html=1;" vertex="1" parent="1">
          <mxGeometry x="720" y="550" width="120" height="60" as="geometry" />
        </mxCell>
        <mxCell id="lmHkhgjNpgNXsXYPBzXR-16" value="Кассир" style="rounded=0;whiteSpace=wrap;html=1;" vertex="1" parent="1">
          <mxGeometry x="870" y="550" width="120" height="60" as="geometry" />
        </mxCell>
        <mxCell id="lmHkhgjNpgNXsXYPBzXR-71" style="edgeStyle=orthogonalEdgeStyle;rounded=0;orthogonalLoop=1;jettySize=auto;html=1;entryX=0.5;entryY=0;entryDx=0;entryDy=0;" edge="1" parent="1" target="lmHkhgjNpgNXsXYPBzXR-70">
          <mxGeometry relative="1" as="geometry">
            <mxPoint x="880" y="650" as="sourcePoint" />
          </mxGeometry>
        </mxCell>
        <mxCell id="lmHkhgjNpgNXsXYPBzXR-73" style="edgeStyle=orthogonalEdgeStyle;rounded=0;orthogonalLoop=1;jettySize=auto;html=1;entryX=0.5;entryY=0;entryDx=0;entryDy=0;" edge="1" parent="1" target="lmHkhgjNpgNXsXYPBzXR-72">
          <mxGeometry relative="1" as="geometry">
            <mxPoint x="1030" y="650" as="sourcePoint" />
          </mxGeometry>
        </mxCell>
        <mxCell id="lmHkhgjNpgNXsXYPBzXR-64" value="Повар-стажёр" style="rounded=0;whiteSpace=wrap;html=1;" vertex="1" parent="1">
          <mxGeometry y="690" width="120" height="60" as="geometry" />
        </mxCell>
        <mxCell id="lmHkhgjNpgNXsXYPBzXR-65" value="Повар-стажёр" style="rounded=0;whiteSpace=wrap;html=1;" vertex="1" parent="1">
          <mxGeometry x="150" y="690" width="120" height="60" as="geometry" />
        </mxCell>
        <mxCell id="lmHkhgjNpgNXsXYPBzXR-68" value="Кассир-стажёр" style="rounded=0;whiteSpace=wrap;html=1;" vertex="1" parent="1">
          <mxGeometry x="310" y="690" width="120" height="60" as="geometry" />
        </mxCell>
        <mxCell id="lmHkhgjNpgNXsXYPBzXR-74" value="Селиванов В.П." style="rounded=1;whiteSpace=wrap;html=1;" vertex="1" parent="1">
          <mxGeometry x="420" y="400" width="120" height="60" as="geometry" />
        </mxCell>
        <mxCell id="lmHkhgjNpgNXsXYPBzXR-75" value="" style="endArrow=none;html=1;rounded=0;entryX=0;entryY=0.5;entryDx=0;entryDy=0;exitX=1;exitY=0.5;exitDx=0;exitDy=0;" edge="1" parent="1" source="lmHkhgjNpgNXsXYPBzXR-3" target="lmHkhgjNpgNXsXYPBzXR-74">
          <mxGeometry width="50" height="50" relative="1" as="geometry">
            <mxPoint x="480" y="450" as="sourcePoint" />
            <mxPoint x="530" y="400" as="targetPoint" />
          </mxGeometry>
        </mxCell>
        <mxCell id="lmHkhgjNpgNXsXYPBzXR-76" value="Игорев А.И." style="rounded=1;whiteSpace=wrap;html=1;" vertex="1" parent="1">
          <mxGeometry x="600" y="230" width="120" height="60" as="geometry" />
        </mxCell>
        <mxCell id="lmHkhgjNpgNXsXYPBzXR-77" value="" style="endArrow=none;html=1;rounded=0;entryX=0;entryY=0.5;entryDx=0;entryDy=0;exitX=1;exitY=0.5;exitDx=0;exitDy=0;" edge="1" parent="1" source="lmHkhgjNpgNXsXYPBzXR-79" target="lmHkhgjNpgNXsXYPBzXR-12">
          <mxGeometry width="50" height="50" relative="1" as="geometry">
            <mxPoint x="60" y="620" as="sourcePoint" />
            <mxPoint x="110" y="590" as="targetPoint" />
          </mxGeometry>
        </mxCell>
        <mxCell id="lmHkhgjNpgNXsXYPBzXR-78" value="" style="endArrow=none;html=1;rounded=0;entryX=0;entryY=0.5;entryDx=0;entryDy=0;exitX=1;exitY=0.5;exitDx=0;exitDy=0;" edge="1" parent="1" source="lmHkhgjNpgNXsXYPBzXR-1" target="lmHkhgjNpgNXsXYPBzXR-76">
          <mxGeometry width="50" height="50" relative="1" as="geometry">
            <mxPoint x="690" y="355" as="sourcePoint" />
            <mxPoint x="740" y="305" as="targetPoint" />
          </mxGeometry>
        </mxCell>
        <mxCell id="lmHkhgjNpgNXsXYPBzXR-79" value="Жестров П.З." style="rounded=1;whiteSpace=wrap;html=1;" vertex="1" parent="1">
          <mxGeometry x="-40" y="550" width="120" height="60" as="geometry" />
        </mxCell>
        <mxCell id="lmHkhgjNpgNXsXYPBzXR-80" value="Прокопян К.Р." style="rounded=1;whiteSpace=wrap;html=1;" vertex="1" parent="1">
          <mxGeometry x="-160" y="690" width="120" height="60" as="geometry" />
        </mxCell>
        <mxCell id="lmHkhgjNpgNXsXYPBzXR-82" value="" style="endArrow=none;html=1;rounded=0;entryX=0;entryY=0.5;entryDx=0;entryDy=0;exitX=1;exitY=0.5;exitDx=0;exitDy=0;" edge="1" parent="1" source="lmHkhgjNpgNXsXYPBzXR-80" target="lmHkhgjNpgNXsXYPBzXR-64">
          <mxGeometry width="50" height="50" relative="1" as="geometry">
            <mxPoint x="-40" y="740" as="sourcePoint" />
            <mxPoint x="10" y="690" as="targetPoint" />
          </mxGeometry>
        </mxCell>
        <mxCell id="lmHkhgjNpgNXsXYPBzXR-83" value="Селиванов К.Ж." style="rounded=1;whiteSpace=wrap;html=1;" vertex="1" parent="1">
          <mxGeometry x="940" y="400" width="120" height="60" as="geometry" />
        </mxCell>
        <mxCell id="lmHkhgjNpgNXsXYPBzXR-87" value="Кастров В.Л." style="rounded=1;whiteSpace=wrap;html=1;" vertex="1" parent="1">
          <mxGeometry x="440" y="550" width="120" height="60" as="geometry" />
        </mxCell>
        <mxCell id="lmHkhgjNpgNXsXYPBzXR-88" value="" style="endArrow=none;html=1;rounded=0;entryX=0;entryY=0.5;entryDx=0;entryDy=0;exitX=1;exitY=0.5;exitDx=0;exitDy=0;" edge="1" parent="1" source="lmHkhgjNpgNXsXYPBzXR-14" target="lmHkhgjNpgNXsXYPBzXR-87">
          <mxGeometry width="50" height="50" relative="1" as="geometry">
            <mxPoint x="400" y="660" as="sourcePoint" />
            <mxPoint x="450" y="610" as="targetPoint" />
          </mxGeometry>
        </mxCell>
        <mxCell id="lmHkhgjNpgNXsXYPBzXR-90" value="Протофьев" style="rounded=1;whiteSpace=wrap;html=1;" vertex="1" parent="1">
          <mxGeometry x="450" y="690" width="120" height="60" as="geometry" />
        </mxCell>
        <mxCell id="lmHkhgjNpgNXsXYPBzXR-91" value="" style="endArrow=none;html=1;rounded=0;exitX=1;exitY=0.5;exitDx=0;exitDy=0;" edge="1" parent="1" source="lmHkhgjNpgNXsXYPBzXR-68">
          <mxGeometry width="50" height="50" relative="1" as="geometry">
            <mxPoint x="413" y="750" as="sourcePoint" />
            <mxPoint x="450" y="720" as="targetPoint" />
          </mxGeometry>
        </mxCell>
        <mxCell id="lmHkhgjNpgNXsXYPBzXR-92" value="Иванов Л.Ж." style="rounded=1;whiteSpace=wrap;html=1;" vertex="1" parent="1">
          <mxGeometry x="1020" y="550" width="120" height="60" as="geometry" />
        </mxCell>
        <mxCell id="lmHkhgjNpgNXsXYPBzXR-93" value="" style="endArrow=none;html=1;rounded=0;entryX=0;entryY=0.5;entryDx=0;entryDy=0;exitX=1;exitY=0.5;exitDx=0;exitDy=0;" edge="1" parent="1" source="lmHkhgjNpgNXsXYPBzXR-16">
          <mxGeometry width="50" height="50" relative="1" as="geometry">
            <mxPoint x="970" y="620" as="sourcePoint" />
            <mxPoint x="1020" y="580" as="targetPoint" />
          </mxGeometry>
        </mxCell>
        <mxCell id="lmHkhgjNpgNXsXYPBzXR-94" value="Ситинин Г.Т." style="rounded=1;whiteSpace=wrap;html=1;" vertex="1" parent="1">
          <mxGeometry x="580" y="550" width="120" height="60" as="geometry" />
        </mxCell>
        <mxCell id="lmHkhgjNpgNXsXYPBzXR-95" value="" style="endArrow=none;html=1;rounded=0;entryX=0;entryY=0.5;entryDx=0;entryDy=0;exitX=1;exitY=0.5;exitDx=0;exitDy=0;" edge="1" parent="1" source="lmHkhgjNpgNXsXYPBzXR-94" target="lmHkhgjNpgNXsXYPBzXR-15">
          <mxGeometry width="50" height="50" relative="1" as="geometry">
            <mxPoint x="670" y="620" as="sourcePoint" />
            <mxPoint x="720" y="570" as="targetPoint" />
          </mxGeometry>
        </mxCell>
        <mxCell id="lmHkhgjNpgNXsXYPBzXR-96" value="" style="endArrow=none;html=1;rounded=0;entryX=0;entryY=0.5;entryDx=0;entryDy=0;exitX=1;exitY=0.5;exitDx=0;exitDy=0;" edge="1" parent="1" source="lmHkhgjNpgNXsXYPBzXR-4" target="lmHkhgjNpgNXsXYPBzXR-83">
          <mxGeometry width="50" height="50" relative="1" as="geometry">
            <mxPoint x="890" y="470" as="sourcePoint" />
            <mxPoint x="940" y="420" as="targetPoint" />
          </mxGeometry>
        </mxCell>
        <mxCell id="lmHkhgjNpgNXsXYPBzXR-97" style="edgeStyle=orthogonalEdgeStyle;rounded=0;orthogonalLoop=1;jettySize=auto;html=1;" edge="1" parent="1" source="lmHkhgjNpgNXsXYPBzXR-99" target="lmHkhgjNpgNXsXYPBzXR-105">
          <mxGeometry relative="1" as="geometry">
            <Array as="points">
              <mxPoint x="1820" y="360" />
              <mxPoint x="2080" y="360" />
            </Array>
          </mxGeometry>
        </mxCell>
        <mxCell id="lmHkhgjNpgNXsXYPBzXR-98" style="edgeStyle=orthogonalEdgeStyle;rounded=0;orthogonalLoop=1;jettySize=auto;html=1;" edge="1" parent="1" source="lmHkhgjNpgNXsXYPBzXR-99" target="lmHkhgjNpgNXsXYPBzXR-102">
          <mxGeometry relative="1" as="geometry">
            <Array as="points">
              <mxPoint x="1820" y="360" />
              <mxPoint x="1640" y="360" />
            </Array>
          </mxGeometry>
        </mxCell>
        <mxCell id="lmHkhgjNpgNXsXYPBzXR-99" value="Директор ресторана" style="rounded=0;whiteSpace=wrap;html=1;" vertex="1" parent="1">
          <mxGeometry x="1760" y="240" width="120" height="60" as="geometry" />
        </mxCell>
        <mxCell id="lmHkhgjNpgNXsXYPBzXR-100" style="edgeStyle=orthogonalEdgeStyle;rounded=0;orthogonalLoop=1;jettySize=auto;html=1;" edge="1" parent="1" source="lmHkhgjNpgNXsXYPBzXR-102" target="lmHkhgjNpgNXsXYPBzXR-108">
          <mxGeometry relative="1" as="geometry">
            <Array as="points">
              <mxPoint x="1610" y="510" />
              <mxPoint x="1530" y="510" />
            </Array>
          </mxGeometry>
        </mxCell>
        <mxCell id="lmHkhgjNpgNXsXYPBzXR-101" style="edgeStyle=orthogonalEdgeStyle;rounded=0;orthogonalLoop=1;jettySize=auto;html=1;" edge="1" parent="1" source="lmHkhgjNpgNXsXYPBzXR-102" target="lmHkhgjNpgNXsXYPBzXR-110">
          <mxGeometry relative="1" as="geometry" />
        </mxCell>
        <mxCell id="lmHkhgjNpgNXsXYPBzXR-102" value="Менеджер 1" style="rounded=0;whiteSpace=wrap;html=1;" vertex="1" parent="1">
          <mxGeometry x="1580" y="410" width="120" height="60" as="geometry" />
        </mxCell>
        <mxCell id="lmHkhgjNpgNXsXYPBzXR-103" style="edgeStyle=orthogonalEdgeStyle;rounded=0;orthogonalLoop=1;jettySize=auto;html=1;" edge="1" parent="1" source="lmHkhgjNpgNXsXYPBzXR-105">
          <mxGeometry relative="1" as="geometry">
            <mxPoint x="2110" y="560" as="targetPoint" />
            <Array as="points">
              <mxPoint x="2130" y="515" />
              <mxPoint x="2110" y="515" />
            </Array>
          </mxGeometry>
        </mxCell>
        <mxCell id="lmHkhgjNpgNXsXYPBzXR-104" style="edgeStyle=orthogonalEdgeStyle;rounded=0;orthogonalLoop=1;jettySize=auto;html=1;" edge="1" parent="1" source="lmHkhgjNpgNXsXYPBzXR-105" target="lmHkhgjNpgNXsXYPBzXR-112">
          <mxGeometry relative="1" as="geometry">
            <Array as="points">
              <mxPoint x="2150" y="440" />
              <mxPoint x="2150" y="510" />
              <mxPoint x="2250" y="510" />
            </Array>
          </mxGeometry>
        </mxCell>
        <mxCell id="lmHkhgjNpgNXsXYPBzXR-105" value="Менеджер 2" style="rounded=0;whiteSpace=wrap;html=1;" vertex="1" parent="1">
          <mxGeometry x="2090" y="410" width="120" height="60" as="geometry" />
        </mxCell>
        <mxCell id="lmHkhgjNpgNXsXYPBzXR-106" style="edgeStyle=orthogonalEdgeStyle;rounded=0;orthogonalLoop=1;jettySize=auto;html=1;" edge="1" parent="1" source="lmHkhgjNpgNXsXYPBzXR-108" target="lmHkhgjNpgNXsXYPBzXR-114">
          <mxGeometry relative="1" as="geometry" />
        </mxCell>
        <mxCell id="lmHkhgjNpgNXsXYPBzXR-107" style="edgeStyle=orthogonalEdgeStyle;rounded=0;orthogonalLoop=1;jettySize=auto;html=1;entryX=0.75;entryY=0;entryDx=0;entryDy=0;" edge="1" parent="1" source="lmHkhgjNpgNXsXYPBzXR-108" target="lmHkhgjNpgNXsXYPBzXR-113">
          <mxGeometry relative="1" as="geometry" />
        </mxCell>
        <mxCell id="lmHkhgjNpgNXsXYPBzXR-108" value="Повар-наставник" style="rounded=0;whiteSpace=wrap;html=1;" vertex="1" parent="1">
          <mxGeometry x="1440" y="560" width="120" height="60" as="geometry" />
        </mxCell>
        <mxCell id="lmHkhgjNpgNXsXYPBzXR-109" style="edgeStyle=orthogonalEdgeStyle;rounded=0;orthogonalLoop=1;jettySize=auto;html=1;entryX=0.5;entryY=0;entryDx=0;entryDy=0;" edge="1" parent="1" source="lmHkhgjNpgNXsXYPBzXR-110" target="lmHkhgjNpgNXsXYPBzXR-115">
          <mxGeometry relative="1" as="geometry" />
        </mxCell>
        <mxCell id="lmHkhgjNpgNXsXYPBzXR-110" value="Универсал-наставник" style="rounded=0;whiteSpace=wrap;html=1;" vertex="1" parent="1">
          <mxGeometry x="1630" y="560" width="120" height="60" as="geometry" />
        </mxCell>
        <mxCell id="lmHkhgjNpgNXsXYPBzXR-111" value="Повар" style="rounded=0;whiteSpace=wrap;html=1;" vertex="1" parent="1">
          <mxGeometry x="2040" y="560" width="120" height="60" as="geometry" />
        </mxCell>
        <mxCell id="lmHkhgjNpgNXsXYPBzXR-112" value="Кассир" style="rounded=0;whiteSpace=wrap;html=1;" vertex="1" parent="1">
          <mxGeometry x="2190" y="560" width="120" height="60" as="geometry" />
        </mxCell>
        <mxCell id="lmHkhgjNpgNXsXYPBzXR-113" value="Повар-стажёр" style="rounded=0;whiteSpace=wrap;html=1;" vertex="1" parent="1">
          <mxGeometry x="1320" y="700" width="120" height="60" as="geometry" />
        </mxCell>
        <mxCell id="lmHkhgjNpgNXsXYPBzXR-114" value="Повар-стажёр" style="rounded=0;whiteSpace=wrap;html=1;" vertex="1" parent="1">
          <mxGeometry x="1470" y="700" width="120" height="60" as="geometry" />
        </mxCell>
        <mxCell id="lmHkhgjNpgNXsXYPBzXR-115" value="Кассир-стажёр" style="rounded=0;whiteSpace=wrap;html=1;" vertex="1" parent="1">
          <mxGeometry x="1630" y="700" width="120" height="60" as="geometry" />
        </mxCell>
        <mxCell id="lmHkhgjNpgNXsXYPBzXR-116" value="Селиванов В.П." style="rounded=1;whiteSpace=wrap;html=1;" vertex="1" parent="1">
          <mxGeometry x="1740" y="410" width="120" height="60" as="geometry" />
        </mxCell>
        <mxCell id="lmHkhgjNpgNXsXYPBzXR-117" value="" style="endArrow=none;html=1;rounded=0;entryX=0;entryY=0.5;entryDx=0;entryDy=0;exitX=1;exitY=0.5;exitDx=0;exitDy=0;" edge="1" parent="1" source="lmHkhgjNpgNXsXYPBzXR-102" target="lmHkhgjNpgNXsXYPBzXR-116">
          <mxGeometry width="50" height="50" relative="1" as="geometry">
            <mxPoint x="1800" y="460" as="sourcePoint" />
            <mxPoint x="1850" y="410" as="targetPoint" />
          </mxGeometry>
        </mxCell>
        <mxCell id="lmHkhgjNpgNXsXYPBzXR-118" value="Игорев А.И." style="rounded=1;whiteSpace=wrap;html=1;" vertex="1" parent="1">
          <mxGeometry x="1920" y="240" width="120" height="60" as="geometry" />
        </mxCell>
        <mxCell id="lmHkhgjNpgNXsXYPBzXR-119" value="" style="endArrow=none;html=1;rounded=0;entryX=0;entryY=0.5;entryDx=0;entryDy=0;exitX=1;exitY=0.5;exitDx=0;exitDy=0;" edge="1" parent="1" source="lmHkhgjNpgNXsXYPBzXR-121" target="lmHkhgjNpgNXsXYPBzXR-108">
          <mxGeometry width="50" height="50" relative="1" as="geometry">
            <mxPoint x="1380" y="630" as="sourcePoint" />
            <mxPoint x="1430" y="600" as="targetPoint" />
          </mxGeometry>
        </mxCell>
        <mxCell id="lmHkhgjNpgNXsXYPBzXR-120" value="" style="endArrow=none;html=1;rounded=0;entryX=0;entryY=0.5;entryDx=0;entryDy=0;exitX=1;exitY=0.5;exitDx=0;exitDy=0;" edge="1" parent="1" source="lmHkhgjNpgNXsXYPBzXR-99" target="lmHkhgjNpgNXsXYPBzXR-118">
          <mxGeometry width="50" height="50" relative="1" as="geometry">
            <mxPoint x="2010" y="365" as="sourcePoint" />
            <mxPoint x="2060" y="315" as="targetPoint" />
          </mxGeometry>
        </mxCell>
        <mxCell id="lmHkhgjNpgNXsXYPBzXR-121" value="Жестров П.З." style="rounded=1;whiteSpace=wrap;html=1;" vertex="1" parent="1">
          <mxGeometry x="1280" y="560" width="120" height="60" as="geometry" />
        </mxCell>
        <mxCell id="lmHkhgjNpgNXsXYPBzXR-122" value="Прокопян К.Р." style="rounded=1;whiteSpace=wrap;html=1;" vertex="1" parent="1">
          <mxGeometry x="1160" y="700" width="120" height="60" as="geometry" />
        </mxCell>
        <mxCell id="lmHkhgjNpgNXsXYPBzXR-123" value="" style="endArrow=none;html=1;rounded=0;entryX=0;entryY=0.5;entryDx=0;entryDy=0;exitX=1;exitY=0.5;exitDx=0;exitDy=0;" edge="1" parent="1" source="lmHkhgjNpgNXsXYPBzXR-122" target="lmHkhgjNpgNXsXYPBzXR-113">
          <mxGeometry width="50" height="50" relative="1" as="geometry">
            <mxPoint x="1280" y="750" as="sourcePoint" />
            <mxPoint x="1330" y="700" as="targetPoint" />
          </mxGeometry>
        </mxCell>
        <mxCell id="lmHkhgjNpgNXsXYPBzXR-124" value="Селиванов К.Ж." style="rounded=1;whiteSpace=wrap;html=1;" vertex="1" parent="1">
          <mxGeometry x="2260" y="410" width="120" height="60" as="geometry" />
        </mxCell>
        <mxCell id="lmHkhgjNpgNXsXYPBzXR-125" value="Кастров В.Л." style="rounded=1;whiteSpace=wrap;html=1;" vertex="1" parent="1">
          <mxGeometry x="1760" y="560" width="120" height="60" as="geometry" />
        </mxCell>
        <mxCell id="lmHkhgjNpgNXsXYPBzXR-126" value="" style="endArrow=none;html=1;rounded=0;entryX=0;entryY=0.5;entryDx=0;entryDy=0;exitX=1;exitY=0.5;exitDx=0;exitDy=0;" edge="1" parent="1" source="lmHkhgjNpgNXsXYPBzXR-110" target="lmHkhgjNpgNXsXYPBzXR-125">
          <mxGeometry width="50" height="50" relative="1" as="geometry">
            <mxPoint x="1720" y="670" as="sourcePoint" />
            <mxPoint x="1770" y="620" as="targetPoint" />
          </mxGeometry>
        </mxCell>
        <mxCell id="lmHkhgjNpgNXsXYPBzXR-127" value="Протофьев" style="rounded=1;whiteSpace=wrap;html=1;" vertex="1" parent="1">
          <mxGeometry x="1770" y="700" width="120" height="60" as="geometry" />
        </mxCell>
        <mxCell id="lmHkhgjNpgNXsXYPBzXR-128" value="" style="endArrow=none;html=1;rounded=0;exitX=1;exitY=0.5;exitDx=0;exitDy=0;" edge="1" parent="1" source="lmHkhgjNpgNXsXYPBzXR-115">
          <mxGeometry width="50" height="50" relative="1" as="geometry">
            <mxPoint x="1733" y="760" as="sourcePoint" />
            <mxPoint x="1770" y="730" as="targetPoint" />
          </mxGeometry>
        </mxCell>
        <mxCell id="lmHkhgjNpgNXsXYPBzXR-129" value="Иванов Л.Ж." style="rounded=1;whiteSpace=wrap;html=1;" vertex="1" parent="1">
          <mxGeometry x="2340" y="560" width="120" height="60" as="geometry" />
        </mxCell>
        <mxCell id="lmHkhgjNpgNXsXYPBzXR-130" value="" style="endArrow=none;html=1;rounded=0;entryX=0;entryY=0.5;entryDx=0;entryDy=0;exitX=1;exitY=0.5;exitDx=0;exitDy=0;" edge="1" parent="1" source="lmHkhgjNpgNXsXYPBzXR-112">
          <mxGeometry width="50" height="50" relative="1" as="geometry">
            <mxPoint x="2290" y="630" as="sourcePoint" />
            <mxPoint x="2340" y="590" as="targetPoint" />
          </mxGeometry>
        </mxCell>
        <mxCell id="lmHkhgjNpgNXsXYPBzXR-131" value="Ситинин Г.Т." style="rounded=1;whiteSpace=wrap;html=1;" vertex="1" parent="1">
          <mxGeometry x="1900" y="560" width="120" height="60" as="geometry" />
        </mxCell>
        <mxCell id="lmHkhgjNpgNXsXYPBzXR-132" value="" style="endArrow=none;html=1;rounded=0;entryX=0;entryY=0.5;entryDx=0;entryDy=0;exitX=1;exitY=0.5;exitDx=0;exitDy=0;" edge="1" parent="1" source="lmHkhgjNpgNXsXYPBzXR-131" target="lmHkhgjNpgNXsXYPBzXR-111">
          <mxGeometry width="50" height="50" relative="1" as="geometry">
            <mxPoint x="1990" y="630" as="sourcePoint" />
            <mxPoint x="2040" y="580" as="targetPoint" />
          </mxGeometry>
        </mxCell>
        <mxCell id="lmHkhgjNpgNXsXYPBzXR-133" value="" style="endArrow=none;html=1;rounded=0;entryX=0;entryY=0.5;entryDx=0;entryDy=0;exitX=1;exitY=0.5;exitDx=0;exitDy=0;" edge="1" parent="1" source="lmHkhgjNpgNXsXYPBzXR-105" target="lmHkhgjNpgNXsXYPBzXR-124">
          <mxGeometry width="50" height="50" relative="1" as="geometry">
            <mxPoint x="2210" y="480" as="sourcePoint" />
            <mxPoint x="2260" y="430" as="targetPoint" />
          </mxGeometry>
        </mxCell>
        <mxCell id="lmHkhgjNpgNXsXYPBzXR-135" style="edgeStyle=orthogonalEdgeStyle;rounded=0;orthogonalLoop=1;jettySize=auto;html=1;entryX=0.5;entryY=0;entryDx=0;entryDy=0;" edge="1" parent="1" source="lmHkhgjNpgNXsXYPBzXR-134" target="lmHkhgjNpgNXsXYPBzXR-1">
          <mxGeometry relative="1" as="geometry">
            <Array as="points">
              <mxPoint x="1175" y="170" />
              <mxPoint x="500" y="170" />
            </Array>
          </mxGeometry>
        </mxCell>
        <mxCell id="lmHkhgjNpgNXsXYPBzXR-136" style="edgeStyle=orthogonalEdgeStyle;rounded=0;orthogonalLoop=1;jettySize=auto;html=1;entryX=0.5;entryY=0;entryDx=0;entryDy=0;" edge="1" parent="1" source="lmHkhgjNpgNXsXYPBzXR-134" target="lmHkhgjNpgNXsXYPBzXR-99">
          <mxGeometry relative="1" as="geometry">
            <Array as="points">
              <mxPoint x="1220" y="170" />
              <mxPoint x="1820" y="170" />
            </Array>
          </mxGeometry>
        </mxCell>
        <mxCell id="lmHkhgjNpgNXsXYPBzXR-134" value="&lt;font style=&quot;font-size: 17px&quot;&gt;Территориальный управляющий&lt;/font&gt;" style="rounded=0;whiteSpace=wrap;html=1;" vertex="1" parent="1">
          <mxGeometry x="1070" y="-20" width="270" height="150" as="geometry" />
        </mxCell>
        <mxCell id="lmHkhgjNpgNXsXYPBzXR-137" value="Солопонкина Д.Ц." style="rounded=1;whiteSpace=wrap;html=1;fontSize=17;" vertex="1" parent="1">
          <mxGeometry x="1400" y="7.5" width="180" height="95" as="geometry" />
        </mxCell>
        <mxCell id="lmHkhgjNpgNXsXYPBzXR-138" value="" style="endArrow=none;html=1;rounded=0;fontSize=17;entryX=0;entryY=0.5;entryDx=0;entryDy=0;exitX=1;exitY=0.5;exitDx=0;exitDy=0;" edge="1" parent="1" source="lmHkhgjNpgNXsXYPBzXR-134" target="lmHkhgjNpgNXsXYPBzXR-137">
          <mxGeometry width="50" height="50" relative="1" as="geometry">
            <mxPoint x="1330" y="120" as="sourcePoint" />
            <mxPoint x="1380" y="70" as="targetPoint" />
          </mxGeometry>
        </mxCell>
        <mxCell id="lmHkhgjNpgNXsXYPBzXR-139" style="edgeStyle=orthogonalEdgeStyle;rounded=0;orthogonalLoop=1;jettySize=auto;html=1;" edge="1" parent="1" source="lmHkhgjNpgNXsXYPBzXR-141" target="lmHkhgjNpgNXsXYPBzXR-147">
          <mxGeometry relative="1" as="geometry">
            <Array as="points">
              <mxPoint x="3180" y="395" />
              <mxPoint x="3440" y="395" />
            </Array>
          </mxGeometry>
        </mxCell>
        <mxCell id="lmHkhgjNpgNXsXYPBzXR-140" style="edgeStyle=orthogonalEdgeStyle;rounded=0;orthogonalLoop=1;jettySize=auto;html=1;" edge="1" parent="1" source="lmHkhgjNpgNXsXYPBzXR-141" target="lmHkhgjNpgNXsXYPBzXR-144">
          <mxGeometry relative="1" as="geometry">
            <Array as="points">
              <mxPoint x="3180" y="395" />
              <mxPoint x="3000" y="395" />
            </Array>
          </mxGeometry>
        </mxCell>
        <mxCell id="lmHkhgjNpgNXsXYPBzXR-141" value="Директор ресторана" style="rounded=0;whiteSpace=wrap;html=1;" vertex="1" parent="1">
          <mxGeometry x="3120" y="275" width="120" height="60" as="geometry" />
        </mxCell>
        <mxCell id="lmHkhgjNpgNXsXYPBzXR-142" style="edgeStyle=orthogonalEdgeStyle;rounded=0;orthogonalLoop=1;jettySize=auto;html=1;" edge="1" parent="1" source="lmHkhgjNpgNXsXYPBzXR-144" target="lmHkhgjNpgNXsXYPBzXR-150">
          <mxGeometry relative="1" as="geometry">
            <Array as="points">
              <mxPoint x="2970" y="545" />
              <mxPoint x="2890" y="545" />
            </Array>
          </mxGeometry>
        </mxCell>
        <mxCell id="lmHkhgjNpgNXsXYPBzXR-143" style="edgeStyle=orthogonalEdgeStyle;rounded=0;orthogonalLoop=1;jettySize=auto;html=1;" edge="1" parent="1" source="lmHkhgjNpgNXsXYPBzXR-144" target="lmHkhgjNpgNXsXYPBzXR-152">
          <mxGeometry relative="1" as="geometry" />
        </mxCell>
        <mxCell id="lmHkhgjNpgNXsXYPBzXR-144" value="Менеджер 3" style="rounded=0;whiteSpace=wrap;html=1;" vertex="1" parent="1">
          <mxGeometry x="2940" y="445" width="120" height="60" as="geometry" />
        </mxCell>
        <mxCell id="lmHkhgjNpgNXsXYPBzXR-145" style="edgeStyle=orthogonalEdgeStyle;rounded=0;orthogonalLoop=1;jettySize=auto;html=1;" edge="1" parent="1" source="lmHkhgjNpgNXsXYPBzXR-147">
          <mxGeometry relative="1" as="geometry">
            <mxPoint x="3470.000000000001" y="595" as="targetPoint" />
            <Array as="points">
              <mxPoint x="3490" y="550" />
              <mxPoint x="3470" y="550" />
            </Array>
          </mxGeometry>
        </mxCell>
        <mxCell id="lmHkhgjNpgNXsXYPBzXR-146" style="edgeStyle=orthogonalEdgeStyle;rounded=0;orthogonalLoop=1;jettySize=auto;html=1;" edge="1" parent="1" source="lmHkhgjNpgNXsXYPBzXR-147" target="lmHkhgjNpgNXsXYPBzXR-154">
          <mxGeometry relative="1" as="geometry">
            <Array as="points">
              <mxPoint x="3510" y="475" />
              <mxPoint x="3510" y="545" />
              <mxPoint x="3610" y="545" />
            </Array>
          </mxGeometry>
        </mxCell>
        <mxCell id="lmHkhgjNpgNXsXYPBzXR-147" value="Менеджер4" style="rounded=0;whiteSpace=wrap;html=1;" vertex="1" parent="1">
          <mxGeometry x="3410" y="445" width="120" height="60" as="geometry" />
        </mxCell>
        <mxCell id="lmHkhgjNpgNXsXYPBzXR-148" style="edgeStyle=orthogonalEdgeStyle;rounded=0;orthogonalLoop=1;jettySize=auto;html=1;" edge="1" parent="1" source="lmHkhgjNpgNXsXYPBzXR-150" target="lmHkhgjNpgNXsXYPBzXR-156">
          <mxGeometry relative="1" as="geometry" />
        </mxCell>
        <mxCell id="lmHkhgjNpgNXsXYPBzXR-149" style="edgeStyle=orthogonalEdgeStyle;rounded=0;orthogonalLoop=1;jettySize=auto;html=1;entryX=0.75;entryY=0;entryDx=0;entryDy=0;" edge="1" parent="1" source="lmHkhgjNpgNXsXYPBzXR-150" target="lmHkhgjNpgNXsXYPBzXR-155">
          <mxGeometry relative="1" as="geometry" />
        </mxCell>
        <mxCell id="lmHkhgjNpgNXsXYPBzXR-150" value="Повар-наставник" style="rounded=0;whiteSpace=wrap;html=1;" vertex="1" parent="1">
          <mxGeometry x="2800" y="595" width="120" height="60" as="geometry" />
        </mxCell>
        <mxCell id="lmHkhgjNpgNXsXYPBzXR-151" style="edgeStyle=orthogonalEdgeStyle;rounded=0;orthogonalLoop=1;jettySize=auto;html=1;entryX=0.5;entryY=0;entryDx=0;entryDy=0;" edge="1" parent="1" source="lmHkhgjNpgNXsXYPBzXR-152" target="lmHkhgjNpgNXsXYPBzXR-157">
          <mxGeometry relative="1" as="geometry" />
        </mxCell>
        <mxCell id="lmHkhgjNpgNXsXYPBzXR-152" value="Универсал-наставник" style="rounded=0;whiteSpace=wrap;html=1;" vertex="1" parent="1">
          <mxGeometry x="2990" y="595" width="120" height="60" as="geometry" />
        </mxCell>
        <mxCell id="lmHkhgjNpgNXsXYPBzXR-153" value="Повар" style="rounded=0;whiteSpace=wrap;html=1;" vertex="1" parent="1">
          <mxGeometry x="3400" y="595" width="120" height="60" as="geometry" />
        </mxCell>
        <mxCell id="lmHkhgjNpgNXsXYPBzXR-154" value="Кассир" style="rounded=0;whiteSpace=wrap;html=1;" vertex="1" parent="1">
          <mxGeometry x="3550" y="595" width="120" height="60" as="geometry" />
        </mxCell>
        <mxCell id="lmHkhgjNpgNXsXYPBzXR-155" value="Повар-стажёр" style="rounded=0;whiteSpace=wrap;html=1;" vertex="1" parent="1">
          <mxGeometry x="2680" y="735" width="120" height="60" as="geometry" />
        </mxCell>
        <mxCell id="lmHkhgjNpgNXsXYPBzXR-156" value="Повар-стажёр" style="rounded=0;whiteSpace=wrap;html=1;" vertex="1" parent="1">
          <mxGeometry x="2830" y="735" width="120" height="60" as="geometry" />
        </mxCell>
        <mxCell id="lmHkhgjNpgNXsXYPBzXR-157" value="Кассир-стажёр" style="rounded=0;whiteSpace=wrap;html=1;" vertex="1" parent="1">
          <mxGeometry x="2990" y="735" width="120" height="60" as="geometry" />
        </mxCell>
        <mxCell id="lmHkhgjNpgNXsXYPBzXR-158" value="Селиванов В.П." style="rounded=1;whiteSpace=wrap;html=1;" vertex="1" parent="1">
          <mxGeometry x="3100" y="445" width="120" height="60" as="geometry" />
        </mxCell>
        <mxCell id="lmHkhgjNpgNXsXYPBzXR-159" value="" style="endArrow=none;html=1;rounded=0;entryX=0;entryY=0.5;entryDx=0;entryDy=0;exitX=1;exitY=0.5;exitDx=0;exitDy=0;" edge="1" parent="1" source="lmHkhgjNpgNXsXYPBzXR-144" target="lmHkhgjNpgNXsXYPBzXR-158">
          <mxGeometry width="50" height="50" relative="1" as="geometry">
            <mxPoint x="3160" y="495" as="sourcePoint" />
            <mxPoint x="3210" y="445" as="targetPoint" />
          </mxGeometry>
        </mxCell>
        <mxCell id="lmHkhgjNpgNXsXYPBzXR-160" value="Игорев А.И." style="rounded=1;whiteSpace=wrap;html=1;" vertex="1" parent="1">
          <mxGeometry x="3280" y="275" width="120" height="60" as="geometry" />
        </mxCell>
        <mxCell id="lmHkhgjNpgNXsXYPBzXR-161" value="" style="endArrow=none;html=1;rounded=0;entryX=0;entryY=0.5;entryDx=0;entryDy=0;exitX=1;exitY=0.5;exitDx=0;exitDy=0;" edge="1" parent="1" source="lmHkhgjNpgNXsXYPBzXR-163" target="lmHkhgjNpgNXsXYPBzXR-150">
          <mxGeometry width="50" height="50" relative="1" as="geometry">
            <mxPoint x="2740" y="665" as="sourcePoint" />
            <mxPoint x="2790" y="635" as="targetPoint" />
          </mxGeometry>
        </mxCell>
        <mxCell id="lmHkhgjNpgNXsXYPBzXR-162" value="" style="endArrow=none;html=1;rounded=0;entryX=0;entryY=0.5;entryDx=0;entryDy=0;exitX=1;exitY=0.5;exitDx=0;exitDy=0;" edge="1" parent="1" source="lmHkhgjNpgNXsXYPBzXR-141" target="lmHkhgjNpgNXsXYPBzXR-160">
          <mxGeometry width="50" height="50" relative="1" as="geometry">
            <mxPoint x="3370" y="400" as="sourcePoint" />
            <mxPoint x="3420" y="350" as="targetPoint" />
          </mxGeometry>
        </mxCell>
        <mxCell id="lmHkhgjNpgNXsXYPBzXR-163" value="Жестров П.З." style="rounded=1;whiteSpace=wrap;html=1;" vertex="1" parent="1">
          <mxGeometry x="2640" y="595" width="120" height="60" as="geometry" />
        </mxCell>
        <mxCell id="lmHkhgjNpgNXsXYPBzXR-164" value="Прокопян К.Р." style="rounded=1;whiteSpace=wrap;html=1;" vertex="1" parent="1">
          <mxGeometry x="2520" y="735" width="120" height="60" as="geometry" />
        </mxCell>
        <mxCell id="lmHkhgjNpgNXsXYPBzXR-165" value="" style="endArrow=none;html=1;rounded=0;entryX=0;entryY=0.5;entryDx=0;entryDy=0;exitX=1;exitY=0.5;exitDx=0;exitDy=0;" edge="1" parent="1" source="lmHkhgjNpgNXsXYPBzXR-164" target="lmHkhgjNpgNXsXYPBzXR-155">
          <mxGeometry width="50" height="50" relative="1" as="geometry">
            <mxPoint x="2640" y="785" as="sourcePoint" />
            <mxPoint x="2690" y="735" as="targetPoint" />
          </mxGeometry>
        </mxCell>
        <mxCell id="lmHkhgjNpgNXsXYPBzXR-166" value="Селиванов К.Ж." style="rounded=1;whiteSpace=wrap;html=1;" vertex="1" parent="1">
          <mxGeometry x="3620" y="445" width="120" height="60" as="geometry" />
        </mxCell>
        <mxCell id="lmHkhgjNpgNXsXYPBzXR-167" value="Кастров В.Л." style="rounded=1;whiteSpace=wrap;html=1;" vertex="1" parent="1">
          <mxGeometry x="3120" y="595" width="120" height="60" as="geometry" />
        </mxCell>
        <mxCell id="lmHkhgjNpgNXsXYPBzXR-168" value="" style="endArrow=none;html=1;rounded=0;entryX=0;entryY=0.5;entryDx=0;entryDy=0;exitX=1;exitY=0.5;exitDx=0;exitDy=0;" edge="1" parent="1" source="lmHkhgjNpgNXsXYPBzXR-152" target="lmHkhgjNpgNXsXYPBzXR-167">
          <mxGeometry width="50" height="50" relative="1" as="geometry">
            <mxPoint x="3080" y="705" as="sourcePoint" />
            <mxPoint x="3130" y="655" as="targetPoint" />
          </mxGeometry>
        </mxCell>
        <mxCell id="lmHkhgjNpgNXsXYPBzXR-169" value="Протофьев" style="rounded=1;whiteSpace=wrap;html=1;" vertex="1" parent="1">
          <mxGeometry x="3130" y="735" width="120" height="60" as="geometry" />
        </mxCell>
        <mxCell id="lmHkhgjNpgNXsXYPBzXR-170" value="" style="endArrow=none;html=1;rounded=0;exitX=1;exitY=0.5;exitDx=0;exitDy=0;" edge="1" parent="1" source="lmHkhgjNpgNXsXYPBzXR-157">
          <mxGeometry width="50" height="50" relative="1" as="geometry">
            <mxPoint x="3093" y="795" as="sourcePoint" />
            <mxPoint x="3130.000000000001" y="765" as="targetPoint" />
          </mxGeometry>
        </mxCell>
        <mxCell id="lmHkhgjNpgNXsXYPBzXR-171" value="Иванов Л.Ж." style="rounded=1;whiteSpace=wrap;html=1;" vertex="1" parent="1">
          <mxGeometry x="3700" y="595" width="120" height="60" as="geometry" />
        </mxCell>
        <mxCell id="lmHkhgjNpgNXsXYPBzXR-172" value="" style="endArrow=none;html=1;rounded=0;entryX=0;entryY=0.5;entryDx=0;entryDy=0;exitX=1;exitY=0.5;exitDx=0;exitDy=0;" edge="1" parent="1" source="lmHkhgjNpgNXsXYPBzXR-154">
          <mxGeometry width="50" height="50" relative="1" as="geometry">
            <mxPoint x="3650" y="665" as="sourcePoint" />
            <mxPoint x="3700.000000000001" y="625" as="targetPoint" />
          </mxGeometry>
        </mxCell>
        <mxCell id="lmHkhgjNpgNXsXYPBzXR-173" value="Ситинин Г.Т." style="rounded=1;whiteSpace=wrap;html=1;" vertex="1" parent="1">
          <mxGeometry x="3260" y="595" width="120" height="60" as="geometry" />
        </mxCell>
        <mxCell id="lmHkhgjNpgNXsXYPBzXR-174" value="" style="endArrow=none;html=1;rounded=0;entryX=0;entryY=0.5;entryDx=0;entryDy=0;exitX=1;exitY=0.5;exitDx=0;exitDy=0;" edge="1" parent="1" source="lmHkhgjNpgNXsXYPBzXR-173" target="lmHkhgjNpgNXsXYPBzXR-153">
          <mxGeometry width="50" height="50" relative="1" as="geometry">
            <mxPoint x="3350" y="665" as="sourcePoint" />
            <mxPoint x="3400" y="615" as="targetPoint" />
          </mxGeometry>
        </mxCell>
        <mxCell id="lmHkhgjNpgNXsXYPBzXR-175" value="" style="endArrow=none;html=1;rounded=0;entryX=0;entryY=0.5;entryDx=0;entryDy=0;exitX=1;exitY=0.5;exitDx=0;exitDy=0;" edge="1" parent="1" source="lmHkhgjNpgNXsXYPBzXR-147" target="lmHkhgjNpgNXsXYPBzXR-166">
          <mxGeometry width="50" height="50" relative="1" as="geometry">
            <mxPoint x="3570" y="515" as="sourcePoint" />
            <mxPoint x="3620" y="465" as="targetPoint" />
          </mxGeometry>
        </mxCell>
        <mxCell id="lmHkhgjNpgNXsXYPBzXR-176" style="edgeStyle=orthogonalEdgeStyle;rounded=0;orthogonalLoop=1;jettySize=auto;html=1;" edge="1" parent="1" source="lmHkhgjNpgNXsXYPBzXR-178" target="lmHkhgjNpgNXsXYPBzXR-184">
          <mxGeometry relative="1" as="geometry">
            <Array as="points">
              <mxPoint x="4500" y="405" />
              <mxPoint x="4760" y="405" />
            </Array>
          </mxGeometry>
        </mxCell>
        <mxCell id="lmHkhgjNpgNXsXYPBzXR-177" style="edgeStyle=orthogonalEdgeStyle;rounded=0;orthogonalLoop=1;jettySize=auto;html=1;" edge="1" parent="1" source="lmHkhgjNpgNXsXYPBzXR-178" target="lmHkhgjNpgNXsXYPBzXR-181">
          <mxGeometry relative="1" as="geometry">
            <Array as="points">
              <mxPoint x="4500" y="405" />
              <mxPoint x="4320" y="405" />
            </Array>
          </mxGeometry>
        </mxCell>
        <mxCell id="lmHkhgjNpgNXsXYPBzXR-178" value="Директор ресторана" style="rounded=0;whiteSpace=wrap;html=1;" vertex="1" parent="1">
          <mxGeometry x="4440" y="285" width="120" height="60" as="geometry" />
        </mxCell>
        <mxCell id="lmHkhgjNpgNXsXYPBzXR-179" style="edgeStyle=orthogonalEdgeStyle;rounded=0;orthogonalLoop=1;jettySize=auto;html=1;" edge="1" parent="1" source="lmHkhgjNpgNXsXYPBzXR-181" target="lmHkhgjNpgNXsXYPBzXR-187">
          <mxGeometry relative="1" as="geometry">
            <Array as="points">
              <mxPoint x="4290" y="555" />
              <mxPoint x="4210" y="555" />
            </Array>
          </mxGeometry>
        </mxCell>
        <mxCell id="lmHkhgjNpgNXsXYPBzXR-180" style="edgeStyle=orthogonalEdgeStyle;rounded=0;orthogonalLoop=1;jettySize=auto;html=1;" edge="1" parent="1" source="lmHkhgjNpgNXsXYPBzXR-181" target="lmHkhgjNpgNXsXYPBzXR-189">
          <mxGeometry relative="1" as="geometry" />
        </mxCell>
        <mxCell id="lmHkhgjNpgNXsXYPBzXR-181" value="Менеджер&amp;nbsp;" style="rounded=0;whiteSpace=wrap;html=1;" vertex="1" parent="1">
          <mxGeometry x="4260" y="455" width="120" height="60" as="geometry" />
        </mxCell>
        <mxCell id="lmHkhgjNpgNXsXYPBzXR-182" style="edgeStyle=orthogonalEdgeStyle;rounded=0;orthogonalLoop=1;jettySize=auto;html=1;" edge="1" parent="1" source="lmHkhgjNpgNXsXYPBzXR-184">
          <mxGeometry relative="1" as="geometry">
            <mxPoint x="4790" y="605" as="targetPoint" />
            <Array as="points">
              <mxPoint x="4810" y="560" />
              <mxPoint x="4790" y="560" />
            </Array>
          </mxGeometry>
        </mxCell>
        <mxCell id="lmHkhgjNpgNXsXYPBzXR-183" style="edgeStyle=orthogonalEdgeStyle;rounded=0;orthogonalLoop=1;jettySize=auto;html=1;" edge="1" parent="1" source="lmHkhgjNpgNXsXYPBzXR-184" target="lmHkhgjNpgNXsXYPBzXR-191">
          <mxGeometry relative="1" as="geometry">
            <Array as="points">
              <mxPoint x="4830" y="485" />
              <mxPoint x="4830" y="555" />
              <mxPoint x="4930" y="555" />
            </Array>
          </mxGeometry>
        </mxCell>
        <mxCell id="lmHkhgjNpgNXsXYPBzXR-184" value="Менеджер" style="rounded=0;whiteSpace=wrap;html=1;" vertex="1" parent="1">
          <mxGeometry x="4770" y="455" width="120" height="60" as="geometry" />
        </mxCell>
        <mxCell id="lmHkhgjNpgNXsXYPBzXR-185" style="edgeStyle=orthogonalEdgeStyle;rounded=0;orthogonalLoop=1;jettySize=auto;html=1;" edge="1" parent="1" source="lmHkhgjNpgNXsXYPBzXR-187" target="lmHkhgjNpgNXsXYPBzXR-193">
          <mxGeometry relative="1" as="geometry" />
        </mxCell>
        <mxCell id="lmHkhgjNpgNXsXYPBzXR-186" style="edgeStyle=orthogonalEdgeStyle;rounded=0;orthogonalLoop=1;jettySize=auto;html=1;entryX=0.75;entryY=0;entryDx=0;entryDy=0;" edge="1" parent="1" source="lmHkhgjNpgNXsXYPBzXR-187" target="lmHkhgjNpgNXsXYPBzXR-192">
          <mxGeometry relative="1" as="geometry" />
        </mxCell>
        <mxCell id="lmHkhgjNpgNXsXYPBzXR-187" value="Повар-наставник" style="rounded=0;whiteSpace=wrap;html=1;" vertex="1" parent="1">
          <mxGeometry x="4120" y="605" width="120" height="60" as="geometry" />
        </mxCell>
        <mxCell id="lmHkhgjNpgNXsXYPBzXR-188" style="edgeStyle=orthogonalEdgeStyle;rounded=0;orthogonalLoop=1;jettySize=auto;html=1;entryX=0.5;entryY=0;entryDx=0;entryDy=0;" edge="1" parent="1" source="lmHkhgjNpgNXsXYPBzXR-189" target="lmHkhgjNpgNXsXYPBzXR-194">
          <mxGeometry relative="1" as="geometry" />
        </mxCell>
        <mxCell id="lmHkhgjNpgNXsXYPBzXR-189" value="Универсал-наставник" style="rounded=0;whiteSpace=wrap;html=1;" vertex="1" parent="1">
          <mxGeometry x="4310" y="605" width="120" height="60" as="geometry" />
        </mxCell>
        <mxCell id="lmHkhgjNpgNXsXYPBzXR-190" value="Повар" style="rounded=0;whiteSpace=wrap;html=1;" vertex="1" parent="1">
          <mxGeometry x="4720" y="605" width="120" height="60" as="geometry" />
        </mxCell>
        <mxCell id="lmHkhgjNpgNXsXYPBzXR-191" value="Кассир" style="rounded=0;whiteSpace=wrap;html=1;" vertex="1" parent="1">
          <mxGeometry x="4870" y="605" width="120" height="60" as="geometry" />
        </mxCell>
        <mxCell id="lmHkhgjNpgNXsXYPBzXR-192" value="Повар-стажёр" style="rounded=0;whiteSpace=wrap;html=1;" vertex="1" parent="1">
          <mxGeometry x="4000" y="745" width="120" height="60" as="geometry" />
        </mxCell>
        <mxCell id="lmHkhgjNpgNXsXYPBzXR-193" value="Повар-стажёр" style="rounded=0;whiteSpace=wrap;html=1;" vertex="1" parent="1">
          <mxGeometry x="4150" y="745" width="120" height="60" as="geometry" />
        </mxCell>
        <mxCell id="lmHkhgjNpgNXsXYPBzXR-194" value="Кассир-стажёр" style="rounded=0;whiteSpace=wrap;html=1;" vertex="1" parent="1">
          <mxGeometry x="4310" y="745" width="120" height="60" as="geometry" />
        </mxCell>
        <mxCell id="lmHkhgjNpgNXsXYPBzXR-195" value="Селиванов В.П." style="rounded=1;whiteSpace=wrap;html=1;" vertex="1" parent="1">
          <mxGeometry x="4420" y="455" width="120" height="60" as="geometry" />
        </mxCell>
        <mxCell id="lmHkhgjNpgNXsXYPBzXR-196" value="" style="endArrow=none;html=1;rounded=0;entryX=0;entryY=0.5;entryDx=0;entryDy=0;exitX=1;exitY=0.5;exitDx=0;exitDy=0;" edge="1" parent="1" source="lmHkhgjNpgNXsXYPBzXR-181" target="lmHkhgjNpgNXsXYPBzXR-195">
          <mxGeometry width="50" height="50" relative="1" as="geometry">
            <mxPoint x="4480" y="505" as="sourcePoint" />
            <mxPoint x="4530" y="455" as="targetPoint" />
          </mxGeometry>
        </mxCell>
        <mxCell id="lmHkhgjNpgNXsXYPBzXR-197" value="Игорев А.И." style="rounded=1;whiteSpace=wrap;html=1;" vertex="1" parent="1">
          <mxGeometry x="4600" y="285" width="120" height="60" as="geometry" />
        </mxCell>
        <mxCell id="lmHkhgjNpgNXsXYPBzXR-198" value="" style="endArrow=none;html=1;rounded=0;entryX=0;entryY=0.5;entryDx=0;entryDy=0;exitX=1;exitY=0.5;exitDx=0;exitDy=0;" edge="1" parent="1" source="lmHkhgjNpgNXsXYPBzXR-200" target="lmHkhgjNpgNXsXYPBzXR-187">
          <mxGeometry width="50" height="50" relative="1" as="geometry">
            <mxPoint x="4060" y="675" as="sourcePoint" />
            <mxPoint x="4110" y="645" as="targetPoint" />
          </mxGeometry>
        </mxCell>
        <mxCell id="lmHkhgjNpgNXsXYPBzXR-199" value="" style="endArrow=none;html=1;rounded=0;entryX=0;entryY=0.5;entryDx=0;entryDy=0;exitX=1;exitY=0.5;exitDx=0;exitDy=0;" edge="1" parent="1" source="lmHkhgjNpgNXsXYPBzXR-178" target="lmHkhgjNpgNXsXYPBzXR-197">
          <mxGeometry width="50" height="50" relative="1" as="geometry">
            <mxPoint x="4690" y="410" as="sourcePoint" />
            <mxPoint x="4740" y="360" as="targetPoint" />
          </mxGeometry>
        </mxCell>
        <mxCell id="lmHkhgjNpgNXsXYPBzXR-200" value="Жестров П.З." style="rounded=1;whiteSpace=wrap;html=1;" vertex="1" parent="1">
          <mxGeometry x="3960" y="605" width="120" height="60" as="geometry" />
        </mxCell>
        <mxCell id="lmHkhgjNpgNXsXYPBzXR-201" value="Прокопян К.Р." style="rounded=1;whiteSpace=wrap;html=1;" vertex="1" parent="1">
          <mxGeometry x="3840" y="745" width="120" height="60" as="geometry" />
        </mxCell>
        <mxCell id="lmHkhgjNpgNXsXYPBzXR-202" value="" style="endArrow=none;html=1;rounded=0;entryX=0;entryY=0.5;entryDx=0;entryDy=0;exitX=1;exitY=0.5;exitDx=0;exitDy=0;" edge="1" parent="1" source="lmHkhgjNpgNXsXYPBzXR-201" target="lmHkhgjNpgNXsXYPBzXR-192">
          <mxGeometry width="50" height="50" relative="1" as="geometry">
            <mxPoint x="3960" y="795" as="sourcePoint" />
            <mxPoint x="4010" y="745" as="targetPoint" />
          </mxGeometry>
        </mxCell>
        <mxCell id="lmHkhgjNpgNXsXYPBzXR-203" value="Селиванов К.Ж." style="rounded=1;whiteSpace=wrap;html=1;" vertex="1" parent="1">
          <mxGeometry x="4940" y="455" width="120" height="60" as="geometry" />
        </mxCell>
        <mxCell id="lmHkhgjNpgNXsXYPBzXR-204" value="Кастров В.Л." style="rounded=1;whiteSpace=wrap;html=1;" vertex="1" parent="1">
          <mxGeometry x="4440" y="605" width="120" height="60" as="geometry" />
        </mxCell>
        <mxCell id="lmHkhgjNpgNXsXYPBzXR-205" value="" style="endArrow=none;html=1;rounded=0;entryX=0;entryY=0.5;entryDx=0;entryDy=0;exitX=1;exitY=0.5;exitDx=0;exitDy=0;" edge="1" parent="1" source="lmHkhgjNpgNXsXYPBzXR-189" target="lmHkhgjNpgNXsXYPBzXR-204">
          <mxGeometry width="50" height="50" relative="1" as="geometry">
            <mxPoint x="4400" y="715" as="sourcePoint" />
            <mxPoint x="4450" y="665" as="targetPoint" />
          </mxGeometry>
        </mxCell>
        <mxCell id="lmHkhgjNpgNXsXYPBzXR-206" value="Протофьев" style="rounded=1;whiteSpace=wrap;html=1;" vertex="1" parent="1">
          <mxGeometry x="4450" y="745" width="120" height="60" as="geometry" />
        </mxCell>
        <mxCell id="lmHkhgjNpgNXsXYPBzXR-207" value="" style="endArrow=none;html=1;rounded=0;exitX=1;exitY=0.5;exitDx=0;exitDy=0;" edge="1" parent="1" source="lmHkhgjNpgNXsXYPBzXR-194">
          <mxGeometry width="50" height="50" relative="1" as="geometry">
            <mxPoint x="4413" y="805" as="sourcePoint" />
            <mxPoint x="4450.000000000001" y="775" as="targetPoint" />
          </mxGeometry>
        </mxCell>
        <mxCell id="lmHkhgjNpgNXsXYPBzXR-208" value="Иванов Л.Ж." style="rounded=1;whiteSpace=wrap;html=1;" vertex="1" parent="1">
          <mxGeometry x="5020" y="605" width="120" height="60" as="geometry" />
        </mxCell>
        <mxCell id="lmHkhgjNpgNXsXYPBzXR-209" value="" style="endArrow=none;html=1;rounded=0;entryX=0;entryY=0.5;entryDx=0;entryDy=0;exitX=1;exitY=0.5;exitDx=0;exitDy=0;" edge="1" parent="1" source="lmHkhgjNpgNXsXYPBzXR-191">
          <mxGeometry width="50" height="50" relative="1" as="geometry">
            <mxPoint x="4970" y="675" as="sourcePoint" />
            <mxPoint x="5020" y="635" as="targetPoint" />
          </mxGeometry>
        </mxCell>
        <mxCell id="lmHkhgjNpgNXsXYPBzXR-210" value="Ситинин Г.Т." style="rounded=1;whiteSpace=wrap;html=1;" vertex="1" parent="1">
          <mxGeometry x="4580" y="605" width="120" height="60" as="geometry" />
        </mxCell>
        <mxCell id="lmHkhgjNpgNXsXYPBzXR-211" value="" style="endArrow=none;html=1;rounded=0;entryX=0;entryY=0.5;entryDx=0;entryDy=0;exitX=1;exitY=0.5;exitDx=0;exitDy=0;" edge="1" parent="1" source="lmHkhgjNpgNXsXYPBzXR-210" target="lmHkhgjNpgNXsXYPBzXR-190">
          <mxGeometry width="50" height="50" relative="1" as="geometry">
            <mxPoint x="4670" y="675" as="sourcePoint" />
            <mxPoint x="4720" y="625" as="targetPoint" />
          </mxGeometry>
        </mxCell>
        <mxCell id="lmHkhgjNpgNXsXYPBzXR-212" value="" style="endArrow=none;html=1;rounded=0;entryX=0;entryY=0.5;entryDx=0;entryDy=0;exitX=1;exitY=0.5;exitDx=0;exitDy=0;" edge="1" parent="1" source="lmHkhgjNpgNXsXYPBzXR-184" target="lmHkhgjNpgNXsXYPBzXR-203">
          <mxGeometry width="50" height="50" relative="1" as="geometry">
            <mxPoint x="4890" y="525" as="sourcePoint" />
            <mxPoint x="4940" y="475" as="targetPoint" />
          </mxGeometry>
        </mxCell>
        <mxCell id="lmHkhgjNpgNXsXYPBzXR-213" style="edgeStyle=orthogonalEdgeStyle;rounded=0;orthogonalLoop=1;jettySize=auto;html=1;entryX=0.5;entryY=0;entryDx=0;entryDy=0;" edge="1" parent="1" source="lmHkhgjNpgNXsXYPBzXR-215" target="lmHkhgjNpgNXsXYPBzXR-141">
          <mxGeometry relative="1" as="geometry">
            <Array as="points">
              <mxPoint x="3855" y="215" />
              <mxPoint x="3180" y="215" />
            </Array>
          </mxGeometry>
        </mxCell>
        <mxCell id="lmHkhgjNpgNXsXYPBzXR-214" style="edgeStyle=orthogonalEdgeStyle;rounded=0;orthogonalLoop=1;jettySize=auto;html=1;entryX=0.5;entryY=0;entryDx=0;entryDy=0;" edge="1" parent="1" source="lmHkhgjNpgNXsXYPBzXR-215" target="lmHkhgjNpgNXsXYPBzXR-178">
          <mxGeometry relative="1" as="geometry">
            <Array as="points">
              <mxPoint x="3900" y="215" />
              <mxPoint x="4500" y="215" />
            </Array>
          </mxGeometry>
        </mxCell>
        <mxCell id="lmHkhgjNpgNXsXYPBzXR-215" value="&lt;font style=&quot;font-size: 17px&quot;&gt;Территориальный управляющий&lt;/font&gt;" style="rounded=0;whiteSpace=wrap;html=1;" vertex="1" parent="1">
          <mxGeometry x="3720" y="55" width="270" height="150" as="geometry" />
        </mxCell>
        <mxCell id="lmHkhgjNpgNXsXYPBzXR-216" value="Солопонкина Д.Ц." style="rounded=1;whiteSpace=wrap;html=1;fontSize=17;" vertex="1" parent="1">
          <mxGeometry x="4060" y="82.5" width="180" height="95" as="geometry" />
        </mxCell>
        <mxCell id="lmHkhgjNpgNXsXYPBzXR-217" value="" style="endArrow=none;html=1;rounded=0;fontSize=17;entryX=0;entryY=0.5;entryDx=0;entryDy=0;exitX=1;exitY=0.5;exitDx=0;exitDy=0;" edge="1" parent="1" source="lmHkhgjNpgNXsXYPBzXR-215" target="lmHkhgjNpgNXsXYPBzXR-216">
          <mxGeometry width="50" height="50" relative="1" as="geometry">
            <mxPoint x="4010" y="165" as="sourcePoint" />
            <mxPoint x="4060" y="115" as="targetPoint" />
          </mxGeometry>
        </mxCell>
        <mxCell id="lmHkhgjNpgNXsXYPBzXR-219" style="edgeStyle=orthogonalEdgeStyle;rounded=0;orthogonalLoop=1;jettySize=auto;html=1;fontSize=31;" edge="1" parent="1" source="lmHkhgjNpgNXsXYPBzXR-218" target="lmHkhgjNpgNXsXYPBzXR-134">
          <mxGeometry relative="1" as="geometry">
            <Array as="points">
              <mxPoint x="2470" y="-100" />
              <mxPoint x="1175" y="-100" />
            </Array>
          </mxGeometry>
        </mxCell>
        <mxCell id="lmHkhgjNpgNXsXYPBzXR-220" style="edgeStyle=orthogonalEdgeStyle;rounded=0;orthogonalLoop=1;jettySize=auto;html=1;fontSize=31;" edge="1" parent="1" source="lmHkhgjNpgNXsXYPBzXR-218" target="lmHkhgjNpgNXsXYPBzXR-215">
          <mxGeometry relative="1" as="geometry">
            <Array as="points">
              <mxPoint x="2590" y="-110" />
              <mxPoint x="3855" y="-110" />
            </Array>
          </mxGeometry>
        </mxCell>
        <mxCell id="lmHkhgjNpgNXsXYPBzXR-218" value="&lt;font style=&quot;font-size: 31px&quot;&gt;Головной офис&lt;/font&gt;" style="whiteSpace=wrap;html=1;aspect=fixed;fontSize=17;" vertex="1" parent="1">
          <mxGeometry x="2340" y="-540" width="370" height="370" as="geometry" />
        </mxCell>
        <mxCell id="lmHkhgjNpgNXsXYPBzXR-222" style="edgeStyle=orthogonalEdgeStyle;rounded=0;orthogonalLoop=1;jettySize=auto;html=1;fontSize=17;" edge="1" parent="1" source="lmHkhgjNpgNXsXYPBzXR-221">
          <mxGeometry relative="1" as="geometry">
            <mxPoint x="2535" y="-540" as="targetPoint" />
          </mxGeometry>
        </mxCell>
        <mxCell id="lmHkhgjNpgNXsXYPBzXR-221" value="&lt;font style=&quot;font-size: 17px&quot;&gt;Генеральный директор&lt;/font&gt;" style="rounded=0;whiteSpace=wrap;html=1;fontSize=31;" vertex="1" parent="1">
          <mxGeometry x="2460" y="-750" width="150" height="90" as="geometry" />
        </mxCell>
        <mxCell id="lmHkhgjNpgNXsXYPBzXR-224" value="Савельев Д.Т." style="rounded=1;whiteSpace=wrap;html=1;fontSize=17;" vertex="1" parent="1">
          <mxGeometry x="2660" y="-735" width="120" height="60" as="geometry" />
        </mxCell>
        <mxCell id="lmHkhgjNpgNXsXYPBzXR-225" value="" style="endArrow=none;html=1;rounded=0;fontSize=17;entryX=0;entryY=0.5;entryDx=0;entryDy=0;exitX=1;exitY=0.5;exitDx=0;exitDy=0;" edge="1" parent="1" source="lmHkhgjNpgNXsXYPBzXR-221" target="lmHkhgjNpgNXsXYPBzXR-224">
          <mxGeometry width="50" height="50" relative="1" as="geometry">
            <mxPoint x="2610" y="-675" as="sourcePoint" />
            <mxPoint x="2660" y="-725" as="targetPoint" />
          </mxGeometry>
        </mxCell>
      </root>
    </mxGraphModel>
  </diagram>
</mxfile>
